<svg xmlns="http://www.w3.org/2000/svg" viewBox="0 0 1540 1624" width="1540" height="1624">
<rect width="1540" height="1624" fill="rgb(253,248,239)"/>
<rect x="589" y="253" width="26" height="26" rx="8" fill="rgb(91,48,139)"/>
<rect x="617" y="253" width="26" height="26" rx="8" fill="rgb(92,48,139)"/>
<rect x="645" y="253" width="26" height="26" rx="8" fill="rgb(94,48,139)"/>
<rect x="701" y="253" width="26" height="26" rx="8" fill="rgb(97,48,138)"/>
<rect x="869" y="253" width="26" height="26" rx="8" fill="rgb(105,49,136)"/>
<rect x="897" y="253" width="26" height="26" rx="8" fill="rgb(107,49,136)"/>
<rect x="953" y="253" width="26" height="26" rx="8" fill="rgb(109,49,135)"/>
<rect x="981" y="253" width="26" height="26" rx="8" fill="rgb(111,49,135)"/>
<rect x="1037" y="253" width="26" height="26" rx="8" fill="rgb(114,49,134)"/>
<rect x="645" y="281" width="26" height="26" rx="8" fill="rgb(95,48,138)"/>
<rect x="673" y="281" width="26" height="26" rx="8" fill="rgb(97,48,138)"/>
<rect x="701" y="281" width="26" height="26" rx="8" fill="rgb(98,48,138)"/>
<rect x="729" y="281" width="26" height="26" rx="8" fill="rgb(100,48,138)"/>
<rect x="785" y="281" width="26" height="26" rx="8" fill="rgb(102,49,137)"/>
<rect x="813" y="281" width="26" height="26" rx="8" fill="rgb(104,49,137)"/>
<rect x="841" y="281" width="26" height="26" rx="8" fill="rgb(105,49,136)"/>
<rect x="869" y="281" width="26" height="26" rx="8" fill="rgb(107,49,136)"/>
<rect x="897" y="281" width="26" height="26" rx="8" fill="rgb(108,49,136)"/>
<rect x="925" y="281" width="26" height="26" rx="8" fill="rgb(109,49,135)"/>
<rect x="953" y="281" width="26" height="26" rx="8" fill="rgb(111,49,135)"/>
<rect x="981" y="281" width="26" height="26" rx="8" fill="rgb(112,49,135)"/>
<rect x="1037" y="281" width="26" height="26" rx="8" fill="rgb(115,49,134)"/>
<rect x="477" y="309" width="26" height="26" rx="8" fill="rgb(88,48,140)"/>
<rect x="505" y="309" width="26" height="26" rx="8" fill="rgb(90,48,140)"/>
<rect x="617" y="309" width="26" height="26" rx="8" fill="rgb(95,48,138)"/>
<rect x="673" y="309" width="26" height="26" rx="8" fill="rgb(98,48,138)"/>
<rect x="813" y="309" width="26" height="26" rx="8" fill="rgb(105,49,136)"/>
<rect x="841" y="309" width="26" height="26" rx="8" fill="rgb(107,49,136)"/>
<rect x="897" y="309" width="26" height="26" rx="8" fill="rgb(109,49,135)"/>
<rect x="953" y="309" width="26" height="26" rx="8" fill="rgb(112,49,135)"/>
<rect x="477" y="337" width="26" height="26" rx="8" fill="rgb(90,48,140)"/>
<rect x="505" y="337" width="26" height="26" rx="8" fill="rgb(91,48,139)"/>
<rect x="533" y="337" width="26" height="26" rx="8" fill="rgb(92,48,139)"/>
<rect x="729" y="337" width="26" height="26" rx="8" fill="rgb(102,49,137)"/>
<rect x="785" y="337" width="26" height="26" rx="8" fill="rgb(105,49,136)"/>
<rect x="841" y="337" width="26" height="26" rx="8" fill="rgb(108,49,136)"/>
<rect x="869" y="337" width="26" height="26" rx="8" fill="rgb(109,49,135)"/>
<rect x="897" y="337" width="26" height="26" rx="8" fill="rgb(111,49,135)"/>
<rect x="925" y="337" width="26" height="26" rx="8" fill="rgb(112,49,135)"/>
<rect x="953" y="337" width="26" height="26" rx="8" fill="rgb(114,49,134)"/>
<rect x="981" y="337" width="26" height="26" rx="8" fill="rgb(115,49,134)"/>
<rect x="1009" y="337" width="26" height="26" rx="8" fill="rgb(116,50,134)"/>
<rect x="1037" y="337" width="26" height="26" rx="8" fill="rgb(118,50,134)"/>
<rect x="533" y="365" width="26" height="26" rx="8" fill="rgb(94,48,139)"/>
<rect x="645" y="365" width="26" height="26" rx="8" fill="rgb(100,48,138)"/>
<rect x="673" y="365" width="26" height="26" rx="8" fill="rgb(101,49,137)"/>
<rect x="701" y="365" width="26" height="26" rx="8" fill="rgb(102,49,137)"/>
<rect x="757" y="365" width="26" height="26" rx="8" fill="rgb(105,49,136)"/>
<rect x="785" y="365" width="26" height="26" rx="8" fill="rgb(107,49,136)"/>
<rect x="869" y="365" width="26" height="26" rx="8" fill="rgb(111,49,135)"/>
<rect x="925" y="365" width="26" height="26" rx="8" fill="rgb(114,49,134)"/>
<rect x="953" y="365" width="26" height="26" rx="8" fill="rgb(115,49,134)"/>
<rect x="981" y="365" width="26" height="26" rx="8" fill="rgb(116,50,134)"/>
<rect x="533" y="393" width="26" height="26" rx="8" fill="rgb(95,48,138)"/>
<rect x="561" y="393" width="26" height="26" rx="8" fill="rgb(97,48,138)"/>
<rect x="589" y="393" width="26" height="26" rx="8" fill="rgb(98,48,138)"/>
<rect x="617" y="393" width="26" height="26" rx="8" fill="rgb(100,48,138)"/>
<rect x="645" y="393" width="26" height="26" rx="8" fill="rgb(101,49,137)"/>
<rect x="673" y="393" width="26" height="26" rx="8" fill="rgb(102,49,137)"/>
<rect x="813" y="393" width="26" height="26" rx="8" fill="rgb(109,49,135)"/>
<rect x="841" y="393" width="26" height="26" rx="8" fill="rgb(111,49,135)"/>
<rect x="869" y="393" width="26" height="26" rx="8" fill="rgb(112,49,135)"/>
<rect x="897" y="393" width="26" height="26" rx="8" fill="rgb(114,49,134)"/>
<rect x="925" y="393" width="26" height="26" rx="8" fill="rgb(115,49,134)"/>
<rect x="953" y="393" width="26" height="26" rx="8" fill="rgb(116,50,134)"/>
<rect x="981" y="393" width="26" height="26" rx="8" fill="rgb(118,50,134)"/>
<rect x="477" y="421" width="26" height="26" rx="8" fill="rgb(94,48,139)"/>
<rect x="533" y="421" width="26" height="26" rx="8" fill="rgb(97,48,138)"/>
<rect x="589" y="421" width="26" height="26" rx="8" fill="rgb(100,48,138)"/>
<rect x="645" y="421" width="26" height="26" rx="8" fill="rgb(102,49,137)"/>
<rect x="701" y="421" width="26" height="26" rx="8" fill="rgb(105,49,136)"/>
<rect x="757" y="421" width="26" height="26" rx="8" fill="rgb(108,49,136)"/>
<rect x="813" y="421" width="26" height="26" rx="8" fill="rgb(111,49,135)"/>
<rect x="869" y="421" width="26" height="26" rx="8" fill="rgb(114,49,134)"/>
<rect x="925" y="421" width="26" height="26" rx="8" fill="rgb(116,50,134)"/>
<rect x="981" y="421" width="26" height="26" rx="8" fill="rgb(119,50,133)"/>
<rect x="1037" y="421" width="26" height="26" rx="8" fill="rgb(122,50,133)"/>
<rect x="533" y="449" width="26" height="26" rx="8" fill="rgb(98,48,138)"/>
<rect x="589" y="449" width="26" height="26" rx="8" fill="rgb(101,49,137)"/>
<rect x="617" y="449" width="26" height="26" rx="8" fill="rgb(102,49,137)"/>
<rect x="701" y="449" width="26" height="26" rx="8" fill="rgb(107,49,136)"/>
<rect x="729" y="449" width="26" height="26" rx="8" fill="rgb(108,49,136)"/>
<rect x="757" y="449" width="26" height="26" rx="8" fill="rgb(109,49,135)"/>
<rect x="785" y="449" width="26" height="26" rx="8" fill="rgb(111,49,135)"/>
<rect x="813" y="449" width="26" height="26" rx="8" fill="rgb(112,49,135)"/>
<rect x="841" y="449" width="26" height="26" rx="8" fill="rgb(114,49,134)"/>
<rect x="897" y="449" width="26" height="26" rx="8" fill="rgb(116,50,134)"/>
<rect x="981" y="449" width="26" height="26" rx="8" fill="rgb(121,50,133)"/>
<rect x="1009" y="449" width="26" height="26" rx="8" fill="rgb(122,50,133)"/>
<rect x="1037" y="449" width="26" height="26" rx="8" fill="rgb(124,50,132)"/>
<rect x="337" y="477" width="26" height="26" rx="8" fill="rgb(90,48,140)"/>
<rect x="365" y="477" width="26" height="26" rx="8" fill="rgb(91,48,139)"/>
<rect x="421" y="477" width="26" height="26" rx="8" fill="rgb(94,48,139)"/>
<rect x="449" y="477" width="26" height="26" rx="8" fill="rgb(95,48,138)"/>
<rect x="533" y="477" width="26" height="26" rx="8" fill="rgb(100,48,138)"/>
<rect x="561" y="477" width="26" height="26" rx="8" fill="rgb(101,49,137)"/>
<rect x="617" y="477" width="26" height="26" rx="8" fill="rgb(104,49,137)"/>
<rect x="729" y="477" width="26" height="26" rx="8" fill="rgb(109,49,135)"/>
<rect x="757" y="477" width="26" height="26" rx="8" fill="rgb(111,49,135)"/>
<rect x="785" y="477" width="26" height="26" rx="8" fill="rgb(112,49,135)"/>
<rect x="841" y="477" width="26" height="26" rx="8" fill="rgb(115,49,134)"/>
<rect x="953" y="477" width="26" height="26" rx="8" fill="rgb(121,50,133)"/>
<rect x="981" y="477" width="26" height="26" rx="8" fill="rgb(122,50,133)"/>
<rect x="1177" y="477" width="26" height="26" rx="8" fill="rgb(132,50,130)"/>
<rect x="1205" y="477" width="26" height="26" rx="8" fill="rgb(134,50,130)"/>
<rect x="253" y="505" width="26" height="26" rx="8" fill="rgb(87,48,140)"/>
<rect x="309" y="505" width="26" height="26" rx="8" fill="rgb(90,48,140)"/>
<rect x="337" y="505" width="26" height="26" rx="8" fill="rgb(91,48,139)"/>
<rect x="365" y="505" width="26" height="26" rx="8" fill="rgb(92,48,139)"/>
<rect x="393" y="505" width="26" height="26" rx="8" fill="rgb(94,48,139)"/>
<rect x="533" y="505" width="26" height="26" rx="8" fill="rgb(101,49,137)"/>
<rect x="561" y="505" width="26" height="26" rx="8" fill="rgb(102,49,137)"/>
<rect x="589" y="505" width="26" height="26" rx="8" fill="rgb(104,49,137)"/>
<rect x="645" y="505" width="26" height="26" rx="8" fill="rgb(107,49,136)"/>
<rect x="673" y="505" width="26" height="26" rx="8" fill="rgb(108,49,136)"/>
<rect x="757" y="505" width="26" height="26" rx="8" fill="rgb(112,49,135)"/>
<rect x="813" y="505" width="26" height="26" rx="8" fill="rgb(115,49,134)"/>
<rect x="869" y="505" width="26" height="26" rx="8" fill="rgb(118,50,134)"/>
<rect x="953" y="505" width="26" height="26" rx="8" fill="rgb(122,50,133)"/>
<rect x="981" y="505" width="26" height="26" rx="8" fill="rgb(124,50,132)"/>
<rect x="1037" y="505" width="26" height="26" rx="8" fill="rgb(126,50,132)"/>
<rect x="1093" y="505" width="26" height="26" rx="8" fill="rgb(129,50,131)"/>
<rect x="1121" y="505" width="26" height="26" rx="8" fill="rgb(131,50,131)"/>
<rect x="1205" y="505" width="26" height="26" rx="8" fill="rgb(135,51,130)"/>
<rect x="253" y="533" width="26" height="26" rx="8" fill="rgb(88,48,140)"/>
<rect x="365" y="533" width="26" height="26" rx="8" fill="rgb(94,48,139)"/>
<rect x="421" y="533" width="26" height="26" rx="8" fill="rgb(97,48,138)"/>
<rect x="449" y="533" width="26" height="26" rx="8" fill="rgb(98,48,138)"/>
<rect x="505" y="533" width="26" height="26" rx="8" fill="rgb(101,49,137)"/>
<rect x="561" y="533" width="26" height="26" rx="8" fill="rgb(104,49,137)"/>
<rect x="589" y="533" width="26" height="26" rx="8" fill="rgb(105,49,136)"/>
<rect x="673" y="533" width="26" height="26" rx="8" fill="rgb(109,49,135)"/>
<rect x="729" y="533" width="26" height="26" rx="8" fill="rgb(112,49,135)"/>
<rect x="869" y="533" width="26" height="26" rx="8" fill="rgb(119,50,133)"/>
<rect x="953" y="533" width="26" height="26" rx="8" fill="rgb(124,50,132)"/>
<rect x="1009" y="533" width="26" height="26" rx="8" fill="rgb(126,50,132)"/>
<rect x="1037" y="533" width="26" height="26" rx="8" fill="rgb(128,50,131)"/>
<rect x="1065" y="533" width="26" height="26" rx="8" fill="rgb(129,50,131)"/>
<rect x="1093" y="533" width="26" height="26" rx="8" fill="rgb(131,50,131)"/>
<rect x="1177" y="533" width="26" height="26" rx="8" fill="rgb(135,51,130)"/>
<rect x="1205" y="533" width="26" height="26" rx="8" fill="rgb(136,51,130)"/>
<rect x="1261" y="533" width="26" height="26" rx="8" fill="rgb(139,51,129)"/>
<rect x="309" y="561" width="26" height="26" rx="8" fill="rgb(92,48,139)"/>
<rect x="533" y="561" width="26" height="26" rx="8" fill="rgb(104,49,137)"/>
<rect x="561" y="561" width="26" height="26" rx="8" fill="rgb(105,49,136)"/>
<rect x="589" y="561" width="26" height="26" rx="8" fill="rgb(107,49,136)"/>
<rect x="617" y="561" width="26" height="26" rx="8" fill="rgb(108,49,136)"/>
<rect x="645" y="561" width="26" height="26" rx="8" fill="rgb(109,49,135)"/>
<rect x="673" y="561" width="26" height="26" rx="8" fill="rgb(111,49,135)"/>
<rect x="701" y="561" width="26" height="26" rx="8" fill="rgb(112,49,135)"/>
<rect x="757" y="561" width="26" height="26" rx="8" fill="rgb(115,49,134)"/>
<rect x="785" y="561" width="26" height="26" rx="8" fill="rgb(116,50,134)"/>
<rect x="813" y="561" width="26" height="26" rx="8" fill="rgb(118,50,134)"/>
<rect x="841" y="561" width="26" height="26" rx="8" fill="rgb(119,50,133)"/>
<rect x="981" y="561" width="26" height="26" rx="8" fill="rgb(126,50,132)"/>
<rect x="1037" y="561" width="26" height="26" rx="8" fill="rgb(129,50,131)"/>
<rect x="1065" y="561" width="26" height="26" rx="8" fill="rgb(131,50,131)"/>
<rect x="1093" y="561" width="26" height="26" rx="8" fill="rgb(132,50,130)"/>
<rect x="1121" y="561" width="26" height="26" rx="8" fill="rgb(134,50,130)"/>
<rect x="1149" y="561" width="26" height="26" rx="8" fill="rgb(135,51,130)"/>
<rect x="1177" y="561" width="26" height="26" rx="8" fill="rgb(136,51,130)"/>
<rect x="1205" y="561" width="26" height="26" rx="8" fill="rgb(138,51,129)"/>
<rect x="1233" y="561" width="26" height="26" rx="8" fill="rgb(139,51,129)"/>
<rect x="309" y="589" width="26" height="26" rx="8" fill="rgb(94,48,139)"/>
<rect x="337" y="589" width="26" height="26" rx="8" fill="rgb(95,48,138)"/>
<rect x="365" y="589" width="26" height="26" rx="8" fill="rgb(97,48,138)"/>
<rect x="421" y="589" width="26" height="26" rx="8" fill="rgb(100,48,138)"/>
<rect x="589" y="589" width="26" height="26" rx="8" fill="rgb(108,49,136)"/>
<rect x="617" y="589" width="26" height="26" rx="8" fill="rgb(109,49,135)"/>
<rect x="673" y="589" width="26" height="26" rx="8" fill="rgb(112,49,135)"/>
<rect x="729" y="589" width="26" height="26" rx="8" fill="rgb(115,49,134)"/>
<rect x="869" y="589" width="26" height="26" rx="8" fill="rgb(122,50,133)"/>
<rect x="1009" y="589" width="26" height="26" rx="8" fill="rgb(129,50,131)"/>
<rect x="1093" y="589" width="26" height="26" rx="8" fill="rgb(134,50,130)"/>
<rect x="1121" y="589" width="26" height="26" rx="8" fill="rgb(135,51,130)"/>
<rect x="1177" y="589" width="26" height="26" rx="8" fill="rgb(138,51,129)"/>
<rect x="1233" y="589" width="26" height="26" rx="8" fill="rgb(141,51,129)"/>
<rect x="1261" y="589" width="26" height="26" rx="8" fill="rgb(142,51,128)"/>
<rect x="337" y="617" width="26" height="26" rx="8" fill="rgb(97,48,138)"/>
<rect x="365" y="617" width="26" height="26" rx="8" fill="rgb(98,48,138)"/>
<rect x="393" y="617" width="26" height="26" rx="8" fill="rgb(100,48,138)"/>
<rect x="505" y="617" width="26" height="26" rx="8" fill="rgb(105,49,136)"/>
<rect x="617" y="617" width="26" height="26" rx="8" fill="rgb(111,49,135)"/>
<rect x="645" y="617" width="26" height="26" rx="8" fill="rgb(112,49,135)"/>
<rect x="673" y="617" width="26" height="26" rx="8" fill="rgb(114,49,134)"/>
<rect x="701" y="617" width="26" height="26" rx="8" fill="rgb(115,49,134)"/>
<rect x="729" y="617" width="26" height="26" rx="8" fill="rgb(116,50,134)"/>
<rect x="757" y="617" width="26" height="26" rx="8" fill="rgb(118,50,134)"/>
<rect x="785" y="617" width="26" height="26" rx="8" fill="rgb(119,50,133)"/>
<rect x="841" y="617" width="26" height="26" rx="8" fill="rgb(122,50,133)"/>
<rect x="869" y="617" width="26" height="26" rx="8" fill="rgb(124,50,132)"/>
<rect x="981" y="617" width="26" height="26" rx="8" fill="rgb(129,50,131)"/>
<rect x="1009" y="617" width="26" height="26" rx="8" fill="rgb(131,50,131)"/>
<rect x="1037" y="617" width="26" height="26" rx="8" fill="rgb(132,50,130)"/>
<rect x="1065" y="617" width="26" height="26" rx="8" fill="rgb(134,50,130)"/>
<rect x="1121" y="617" width="26" height="26" rx="8" fill="rgb(136,51,130)"/>
<rect x="1149" y="617" width="26" height="26" rx="8" fill="rgb(138,51,129)"/>
<rect x="1205" y="617" width="26" height="26" rx="8" fill="rgb(141,51,129)"/>
<rect x="253" y="645" width="26" height="26" rx="8" fill="rgb(94,48,139)"/>
<rect x="281" y="645" width="26" height="26" rx="8" fill="rgb(95,48,138)"/>
<rect x="337" y="645" width="26" height="26" rx="8" fill="rgb(98,48,138)"/>
<rect x="365" y="645" width="26" height="26" rx="8" fill="rgb(100,48,138)"/>
<rect x="421" y="645" width="26" height="26" rx="8" fill="rgb(102,49,137)"/>
<rect x="449" y="645" width="26" height="26" rx="8" fill="rgb(104,49,137)"/>
<rect x="477" y="645" width="26" height="26" rx="8" fill="rgb(105,49,136)"/>
<rect x="505" y="645" width="26" height="26" rx="8" fill="rgb(107,49,136)"/>
<rect x="561" y="645" width="26" height="26" rx="8" fill="rgb(109,49,135)"/>
<rect x="589" y="645" width="26" height="26" rx="8" fill="rgb(111,49,135)"/>
<rect x="617" y="645" width="26" height="26" rx="8" fill="rgb(112,49,135)"/>
<rect x="645" y="645" width="26" height="26" rx="8" fill="rgb(114,49,134)"/>
<rect x="673" y="645" width="26" height="26" rx="8" fill="rgb(115,49,134)"/>
<rect x="701" y="645" width="26" height="26" rx="8" fill="rgb(116,50,134)"/>
<rect x="729" y="645" width="26" height="26" rx="8" fill="rgb(118,50,134)"/>
<rect x="785" y="645" width="26" height="26" rx="8" fill="rgb(121,50,133)"/>
<rect x="841" y="645" width="26" height="26" rx="8" fill="rgb(124,50,132)"/>
<rect x="869" y="645" width="26" height="26" rx="8" fill="rgb(125,50,132)"/>
<rect x="925" y="645" width="26" height="26" rx="8" fill="rgb(128,50,131)"/>
<rect x="981" y="645" width="26" height="26" rx="8" fill="rgb(131,50,131)"/>
<rect x="1009" y="645" width="26" height="26" rx="8" fill="rgb(132,50,130)"/>
<rect x="1037" y="645" width="26" height="26" rx="8" fill="rgb(134,50,130)"/>
<rect x="1121" y="645" width="26" height="26" rx="8" fill="rgb(138,51,129)"/>
<rect x="1177" y="645" width="26" height="26" rx="8" fill="rgb(141,51,129)"/>
<rect x="1205" y="645" width="26" height="26" rx="8" fill="rgb(142,51,128)"/>
<rect x="1233" y="645" width="26" height="26" rx="8" fill="rgb(143,51,128)"/>
<rect x="1261" y="645" width="26" height="26" rx="8" fill="rgb(145,51,128)"/>
<rect x="253" y="673" width="26" height="26" rx="8" fill="rgb(95,48,138)"/>
<rect x="281" y="673" width="26" height="26" rx="8" fill="rgb(97,48,138)"/>
<rect x="365" y="673" width="26" height="26" rx="8" fill="rgb(101,49,137)"/>
<rect x="449" y="673" width="26" height="26" rx="8" fill="rgb(105,49,136)"/>
<rect x="505" y="673" width="26" height="26" rx="8" fill="rgb(108,49,136)"/>
<rect x="561" y="673" width="26" height="26" rx="8" fill="rgb(111,49,135)"/>
<rect x="589" y="673" width="26" height="26" rx="8" fill="rgb(112,49,135)"/>
<rect x="617" y="673" width="26" height="26" rx="8" fill="rgb(114,49,134)"/>
<rect x="645" y="673" width="26" height="26" rx="8" fill="rgb(115,49,134)"/>
<rect x="869" y="673" width="26" height="26" rx="8" fill="rgb(126,50,132)"/>
<rect x="925" y="673" width="26" height="26" rx="8" fill="rgb(129,50,131)"/>
<rect x="981" y="673" width="26" height="26" rx="8" fill="rgb(132,50,130)"/>
<rect x="1037" y="673" width="26" height="26" rx="8" fill="rgb(135,51,130)"/>
<rect x="1093" y="673" width="26" height="26" rx="8" fill="rgb(138,51,129)"/>
<rect x="1121" y="673" width="26" height="26" rx="8" fill="rgb(139,51,129)"/>
<rect x="1177" y="673" width="26" height="26" rx="8" fill="rgb(142,51,128)"/>
<rect x="1205" y="673" width="26" height="26" rx="8" fill="rgb(143,51,128)"/>
<rect x="1261" y="673" width="26" height="26" rx="8" fill="rgb(146,51,127)"/>
<rect x="281" y="701" width="26" height="26" rx="8" fill="rgb(98,48,138)"/>
<rect x="309" y="701" width="26" height="26" rx="8" fill="rgb(100,48,138)"/>
<rect x="393" y="701" width="26" height="26" rx="8" fill="rgb(104,49,137)"/>
<rect x="421" y="701" width="26" height="26" rx="8" fill="rgb(105,49,136)"/>
<rect x="449" y="701" width="26" height="26" rx="8" fill="rgb(107,49,136)"/>
<rect x="505" y="701" width="26" height="26" rx="8" fill="rgb(109,49,135)"/>
<rect x="533" y="701" width="26" height="26" rx="8" fill="rgb(111,49,135)"/>
<rect x="617" y="701" width="26" height="26" rx="8" fill="rgb(115,49,134)"/>
<rect x="869" y="701" width="26" height="26" rx="8" fill="rgb(128,50,131)"/>
<rect x="897" y="701" width="26" height="26" rx="8" fill="rgb(129,50,131)"/>
<rect x="925" y="701" width="26" height="26" rx="8" fill="rgb(131,50,131)"/>
<rect x="953" y="701" width="26" height="26" rx="8" fill="rgb(132,50,130)"/>
<rect x="1009" y="701" width="26" height="26" rx="8" fill="rgb(135,51,130)"/>
<rect x="1093" y="701" width="26" height="26" rx="8" fill="rgb(139,51,129)"/>
<rect x="1205" y="701" width="26" height="26" rx="8" fill="rgb(145,51,128)"/>
<rect x="1233" y="701" width="26" height="26" rx="8" fill="rgb(146,51,127)"/>
<rect x="253" y="729" width="26" height="26" rx="8" fill="rgb(98,48,138)"/>
<rect x="365" y="729" width="26" height="26" rx="8" fill="rgb(104,49,137)"/>
<rect x="449" y="729" width="26" height="26" rx="8" fill="rgb(108,49,136)"/>
<rect x="477" y="729" width="26" height="26" rx="8" fill="rgb(109,49,135)"/>
<rect x="533" y="729" width="26" height="26" rx="8" fill="rgb(112,49,135)"/>
<rect x="589" y="729" width="26" height="26" rx="8" fill="rgb(115,49,134)"/>
<rect x="645" y="729" width="26" height="26" rx="8" fill="rgb(118,50,134)"/>
<rect x="897" y="729" width="26" height="26" rx="8" fill="rgb(131,50,131)"/>
<rect x="953" y="729" width="26" height="26" rx="8" fill="rgb(134,50,130)"/>
<rect x="981" y="729" width="26" height="26" rx="8" fill="rgb(135,51,130)"/>
<rect x="1009" y="729" width="26" height="26" rx="8" fill="rgb(136,51,130)"/>
<rect x="1065" y="729" width="26" height="26" rx="8" fill="rgb(139,51,129)"/>
<rect x="1121" y="729" width="26" height="26" rx="8" fill="rgb(142,51,128)"/>
<rect x="1177" y="729" width="26" height="26" rx="8" fill="rgb(145,51,128)"/>
<rect x="1233" y="729" width="26" height="26" rx="8" fill="rgb(148,51,127)"/>
<rect x="281" y="757" width="26" height="26" rx="8" fill="rgb(101,49,137)"/>
<rect x="421" y="757" width="26" height="26" rx="8" fill="rgb(108,49,136)"/>
<rect x="449" y="757" width="26" height="26" rx="8" fill="rgb(109,49,135)"/>
<rect x="477" y="757" width="26" height="26" rx="8" fill="rgb(111,49,135)"/>
<rect x="533" y="757" width="26" height="26" rx="8" fill="rgb(114,49,134)"/>
<rect x="561" y="757" width="26" height="26" rx="8" fill="rgb(115,49,134)"/>
<rect x="869" y="757" width="26" height="26" rx="8" fill="rgb(131,50,131)"/>
<rect x="897" y="757" width="26" height="26" rx="8" fill="rgb(132,50,130)"/>
<rect x="925" y="757" width="26" height="26" rx="8" fill="rgb(134,50,130)"/>
<rect x="1009" y="757" width="26" height="26" rx="8" fill="rgb(138,51,129)"/>
<rect x="1037" y="757" width="26" height="26" rx="8" fill="rgb(139,51,129)"/>
<rect x="1261" y="757" width="26" height="26" rx="8" fill="rgb(150,52,126)"/>
<rect x="253" y="785" width="26" height="26" rx="8" fill="rgb(101,49,137)"/>
<rect x="281" y="785" width="26" height="26" rx="8" fill="rgb(102,49,137)"/>
<rect x="337" y="785" width="26" height="26" rx="8" fill="rgb(105,49,136)"/>
<rect x="449" y="785" width="26" height="26" rx="8" fill="rgb(111,49,135)"/>
<rect x="477" y="785" width="26" height="26" rx="8" fill="rgb(112,49,135)"/>
<rect x="505" y="785" width="26" height="26" rx="8" fill="rgb(114,49,134)"/>
<rect x="533" y="785" width="26" height="26" rx="8" fill="rgb(115,49,134)"/>
<rect x="561" y="785" width="26" height="26" rx="8" fill="rgb(116,50,134)"/>
<rect x="589" y="785" width="26" height="26" rx="8" fill="rgb(118,50,134)"/>
<rect x="897" y="785" width="26" height="26" rx="8" fill="rgb(134,50,130)"/>
<rect x="925" y="785" width="26" height="26" rx="8" fill="rgb(135,51,130)"/>
<rect x="953" y="785" width="26" height="26" rx="8" fill="rgb(136,51,130)"/>
<rect x="1009" y="785" width="26" height="26" rx="8" fill="rgb(139,51,129)"/>
<rect x="1121" y="785" width="26" height="26" rx="8" fill="rgb(145,51,128)"/>
<rect x="1149" y="785" width="26" height="26" rx="8" fill="rgb(146,51,127)"/>
<rect x="1261" y="785" width="26" height="26" rx="8" fill="rgb(152,52,126)"/>
<rect x="253" y="813" width="26" height="26" rx="8" fill="rgb(102,49,137)"/>
<rect x="281" y="813" width="26" height="26" rx="8" fill="rgb(104,49,137)"/>
<rect x="337" y="813" width="26" height="26" rx="8" fill="rgb(107,49,136)"/>
<rect x="365" y="813" width="26" height="26" rx="8" fill="rgb(108,49,136)"/>
<rect x="421" y="813" width="26" height="26" rx="8" fill="rgb(111,49,135)"/>
<rect x="449" y="813" width="26" height="26" rx="8" fill="rgb(112,49,135)"/>
<rect x="477" y="813" width="26" height="26" rx="8" fill="rgb(114,49,134)"/>
<rect x="505" y="813" width="26" height="26" rx="8" fill="rgb(115,49,134)"/>
<rect x="533" y="813" width="26" height="26" rx="8" fill="rgb(116,50,134)"/>
<rect x="561" y="813" width="26" height="26" rx="8" fill="rgb(118,50,134)"/>
<rect x="589" y="813" width="26" height="26" rx="8" fill="rgb(119,50,133)"/>
<rect x="617" y="813" width="26" height="26" rx="8" fill="rgb(121,50,133)"/>
<rect x="897" y="813" width="26" height="26" rx="8" fill="rgb(135,51,130)"/>
<rect x="981" y="813" width="26" height="26" rx="8" fill="rgb(139,51,129)"/>
<rect x="1037" y="813" width="26" height="26" rx="8" fill="rgb(142,51,128)"/>
<rect x="1065" y="813" width="26" height="26" rx="8" fill="rgb(143,51,128)"/>
<rect x="1093" y="813" width="26" height="26" rx="8" fill="rgb(145,51,128)"/>
<rect x="1149" y="813" width="26" height="26" rx="8" fill="rgb(148,51,127)"/>
<rect x="1177" y="813" width="26" height="26" rx="8" fill="rgb(149,51,127)"/>
<rect x="1233" y="813" width="26" height="26" rx="8" fill="rgb(152,52,126)"/>
<rect x="1261" y="813" width="26" height="26" rx="8" fill="rgb(153,52,126)"/>
<rect x="309" y="841" width="26" height="26" rx="8" fill="rgb(107,49,136)"/>
<rect x="561" y="841" width="26" height="26" rx="8" fill="rgb(119,50,133)"/>
<rect x="589" y="841" width="26" height="26" rx="8" fill="rgb(121,50,133)"/>
<rect x="617" y="841" width="26" height="26" rx="8" fill="rgb(122,50,133)"/>
<rect x="645" y="841" width="26" height="26" rx="8" fill="rgb(124,50,132)"/>
<rect x="673" y="841" width="26" height="26" rx="8" fill="rgb(125,50,132)"/>
<rect x="841" y="841" width="26" height="26" rx="8" fill="rgb(134,50,130)"/>
<rect x="925" y="841" width="26" height="26" rx="8" fill="rgb(138,51,129)"/>
<rect x="981" y="841" width="26" height="26" rx="8" fill="rgb(141,51,129)"/>
<rect x="1009" y="841" width="26" height="26" rx="8" fill="rgb(142,51,128)"/>
<rect x="1037" y="841" width="26" height="26" rx="8" fill="rgb(143,51,128)"/>
<rect x="1121" y="841" width="26" height="26" rx="8" fill="rgb(148,51,127)"/>
<rect x="1149" y="841" width="26" height="26" rx="8" fill="rgb(149,51,127)"/>
<rect x="1205" y="841" width="26" height="26" rx="8" fill="rgb(152,52,126)"/>
<rect x="1233" y="841" width="26" height="26" rx="8" fill="rgb(153,52,126)"/>
<rect x="365" y="869" width="26" height="26" rx="8" fill="rgb(111,49,135)"/>
<rect x="421" y="869" width="26" height="26" rx="8" fill="rgb(114,49,134)"/>
<rect x="449" y="869" width="26" height="26" rx="8" fill="rgb(115,49,134)"/>
<rect x="505" y="869" width="26" height="26" rx="8" fill="rgb(118,50,134)"/>
<rect x="533" y="869" width="26" height="26" rx="8" fill="rgb(119,50,133)"/>
<rect x="561" y="869" width="26" height="26" rx="8" fill="rgb(121,50,133)"/>
<rect x="617" y="869" width="26" height="26" rx="8" fill="rgb(124,50,132)"/>
<rect x="673" y="869" width="26" height="26" rx="8" fill="rgb(126,50,132)"/>
<rect x="813" y="869" width="26" height="26" rx="8" fill="rgb(134,50,130)"/>
<rect x="925" y="869" width="26" height="26" rx="8" fill="rgb(139,51,129)"/>
<rect x="981" y="869" width="26" height="26" rx="8" fill="rgb(142,51,128)"/>
<rect x="1009" y="869" width="26" height="26" rx="8" fill="rgb(143,51,128)"/>
<rect x="1065" y="869" width="26" height="26" rx="8" fill="rgb(146,51,127)"/>
<rect x="1093" y="869" width="26" height="26" rx="8" fill="rgb(148,51,127)"/>
<rect x="1149" y="869" width="26" height="26" rx="8" fill="rgb(150,52,126)"/>
<rect x="1205" y="869" width="26" height="26" rx="8" fill="rgb(153,52,126)"/>
<rect x="1261" y="869" width="26" height="26" rx="8" fill="rgb(156,52,125)"/>
<rect x="337" y="897" width="26" height="26" rx="8" fill="rgb(111,49,135)"/>
<rect x="393" y="897" width="26" height="26" rx="8" fill="rgb(114,49,134)"/>
<rect x="505" y="897" width="26" height="26" rx="8" fill="rgb(119,50,133)"/>
<rect x="561" y="897" width="26" height="26" rx="8" fill="rgb(122,50,133)"/>
<rect x="589" y="897" width="26" height="26" rx="8" fill="rgb(124,50,132)"/>
<rect x="617" y="897" width="26" height="26" rx="8" fill="rgb(125,50,132)"/>
<rect x="673" y="897" width="26" height="26" rx="8" fill="rgb(128,50,131)"/>
<rect x="701" y="897" width="26" height="26" rx="8" fill="rgb(129,50,131)"/>
<rect x="729" y="897" width="26" height="26" rx="8" fill="rgb(131,50,131)"/>
<rect x="813" y="897" width="26" height="26" rx="8" fill="rgb(135,51,130)"/>
<rect x="925" y="897" width="26" height="26" rx="8" fill="rgb(141,51,129)"/>
<rect x="981" y="897" width="26" height="26" rx="8" fill="rgb(143,51,128)"/>
<rect x="1009" y="897" width="26" height="26" rx="8" fill="rgb(145,51,128)"/>
<rect x="1037" y="897" width="26" height="26" rx="8" fill="rgb(146,51,127)"/>
<rect x="1093" y="897" width="26" height="26" rx="8" fill="rgb(149,51,127)"/>
<rect x="1121" y="897" width="26" height="26" rx="8" fill="rgb(150,52,126)"/>
<rect x="1177" y="897" width="26" height="26" rx="8" fill="rgb(153,52,126)"/>
<rect x="1205" y="897" width="26" height="26" rx="8" fill="rgb(155,52,126)"/>
<rect x="1233" y="897" width="26" height="26" rx="8" fill="rgb(156,52,125)"/>
<rect x="1261" y="897" width="26" height="26" rx="8" fill="rgb(158,52,125)"/>
<rect x="337" y="925" width="26" height="26" rx="8" fill="rgb(112,49,135)"/>
<rect x="365" y="925" width="26" height="26" rx="8" fill="rgb(114,49,134)"/>
<rect x="421" y="925" width="26" height="26" rx="8" fill="rgb(116,50,134)"/>
<rect x="589" y="925" width="26" height="26" rx="8" fill="rgb(125,50,132)"/>
<rect x="645" y="925" width="26" height="26" rx="8" fill="rgb(128,50,131)"/>
<rect x="673" y="925" width="26" height="26" rx="8" fill="rgb(129,50,131)"/>
<rect x="813" y="925" width="26" height="26" rx="8" fill="rgb(136,51,130)"/>
<rect x="841" y="925" width="26" height="26" rx="8" fill="rgb(138,51,129)"/>
<rect x="869" y="925" width="26" height="26" rx="8" fill="rgb(139,51,129)"/>
<rect x="897" y="925" width="26" height="26" rx="8" fill="rgb(141,51,129)"/>
<rect x="953" y="925" width="26" height="26" rx="8" fill="rgb(143,51,128)"/>
<rect x="981" y="925" width="26" height="26" rx="8" fill="rgb(145,51,128)"/>
<rect x="1037" y="925" width="26" height="26" rx="8" fill="rgb(148,51,127)"/>
<rect x="1065" y="925" width="26" height="26" rx="8" fill="rgb(149,51,127)"/>
<rect x="1093" y="925" width="26" height="26" rx="8" fill="rgb(150,52,126)"/>
<rect x="1121" y="925" width="26" height="26" rx="8" fill="rgb(152,52,126)"/>
<rect x="1149" y="925" width="26" height="26" rx="8" fill="rgb(153,52,126)"/>
<rect x="1177" y="925" width="26" height="26" rx="8" fill="rgb(155,52,126)"/>
<rect x="1261" y="925" width="26" height="26" rx="8" fill="rgb(159,52,125)"/>
<rect x="253" y="953" width="26" height="26" rx="8" fill="rgb(109,49,135)"/>
<rect x="281" y="953" width="26" height="26" rx="8" fill="rgb(111,49,135)"/>
<rect x="337" y="953" width="26" height="26" rx="8" fill="rgb(114,49,134)"/>
<rect x="393" y="953" width="26" height="26" rx="8" fill="rgb(116,50,134)"/>
<rect x="449" y="953" width="26" height="26" rx="8" fill="rgb(119,50,133)"/>
<rect x="561" y="953" width="26" height="26" rx="8" fill="rgb(125,50,132)"/>
<rect x="589" y="953" width="26" height="26" rx="8" fill="rgb(126,50,132)"/>
<rect x="617" y="953" width="26" height="26" rx="8" fill="rgb(128,50,131)"/>
<rect x="645" y="953" width="26" height="26" rx="8" fill="rgb(129,50,131)"/>
<rect x="813" y="953" width="26" height="26" rx="8" fill="rgb(138,51,129)"/>
<rect x="869" y="953" width="26" height="26" rx="8" fill="rgb(141,51,129)"/>
<rect x="925" y="953" width="26" height="26" rx="8" fill="rgb(143,51,128)"/>
<rect x="1037" y="953" width="26" height="26" rx="8" fill="rgb(149,51,127)"/>
<rect x="1065" y="953" width="26" height="26" rx="8" fill="rgb(150,52,126)"/>
<rect x="1093" y="953" width="26" height="26" rx="8" fill="rgb(152,52,126)"/>
<rect x="1121" y="953" width="26" height="26" rx="8" fill="rgb(153,52,126)"/>
<rect x="1149" y="953" width="26" height="26" rx="8" fill="rgb(155,52,126)"/>
<rect x="1177" y="953" width="26" height="26" rx="8" fill="rgb(156,52,125)"/>
<rect x="1205" y="953" width="26" height="26" rx="8" fill="rgb(158,52,125)"/>
<rect x="1233" y="953" width="26" height="26" rx="8" fill="rgb(159,52,125)"/>
<rect x="253" y="981" width="26" height="26" rx="8" fill="rgb(111,49,135)"/>
<rect x="281" y="981" width="26" height="26" rx="8" fill="rgb(112,49,135)"/>
<rect x="309" y="981" width="26" height="26" rx="8" fill="rgb(114,49,134)"/>
<rect x="337" y="981" width="26" height="26" rx="8" fill="rgb(115,49,134)"/>
<rect x="393" y="981" width="26" height="26" rx="8" fill="rgb(118,50,134)"/>
<rect x="421" y="981" width="26" height="26" rx="8" fill="rgb(119,50,133)"/>
<rect x="449" y="981" width="26" height="26" rx="8" fill="rgb(121,50,133)"/>
<rect x="477" y="981" width="26" height="26" rx="8" fill="rgb(122,50,133)"/>
<rect x="589" y="981" width="26" height="26" rx="8" fill="rgb(128,50,131)"/>
<rect x="645" y="981" width="26" height="26" rx="8" fill="rgb(131,50,131)"/>
<rect x="673" y="981" width="26" height="26" rx="8" fill="rgb(132,50,130)"/>
<rect x="729" y="981" width="26" height="26" rx="8" fill="rgb(135,51,130)"/>
<rect x="785" y="981" width="26" height="26" rx="8" fill="rgb(138,51,129)"/>
<rect x="813" y="981" width="26" height="26" rx="8" fill="rgb(139,51,129)"/>
<rect x="841" y="981" width="26" height="26" rx="8" fill="rgb(141,51,129)"/>
<rect x="953" y="981" width="26" height="26" rx="8" fill="rgb(146,51,127)"/>
<rect x="981" y="981" width="26" height="26" rx="8" fill="rgb(148,51,127)"/>
<rect x="1037" y="981" width="26" height="26" rx="8" fill="rgb(150,52,126)"/>
<rect x="1093" y="981" width="26" height="26" rx="8" fill="rgb(153,52,126)"/>
<rect x="1149" y="981" width="26" height="26" rx="8" fill="rgb(156,52,125)"/>
<rect x="1233" y="981" width="26" height="26" rx="8" fill="rgb(160,52,124)"/>
<rect x="1261" y="981" width="26" height="26" rx="8" fill="rgb(162,52,124)"/>
<rect x="253" y="1009" width="26" height="26" rx="8" fill="rgb(112,49,135)"/>
<rect x="309" y="1009" width="26" height="26" rx="8" fill="rgb(115,49,134)"/>
<rect x="365" y="1009" width="26" height="26" rx="8" fill="rgb(118,50,134)"/>
<rect x="393" y="1009" width="26" height="26" rx="8" fill="rgb(119,50,133)"/>
<rect x="449" y="1009" width="26" height="26" rx="8" fill="rgb(122,50,133)"/>
<rect x="477" y="1009" width="26" height="26" rx="8" fill="rgb(124,50,132)"/>
<rect x="505" y="1009" width="26" height="26" rx="8" fill="rgb(125,50,132)"/>
<rect x="589" y="1009" width="26" height="26" rx="8" fill="rgb(129,50,131)"/>
<rect x="645" y="1009" width="26" height="26" rx="8" fill="rgb(132,50,130)"/>
<rect x="701" y="1009" width="26" height="26" rx="8" fill="rgb(135,51,130)"/>
<rect x="785" y="1009" width="26" height="26" rx="8" fill="rgb(139,51,129)"/>
<rect x="869" y="1009" width="26" height="26" rx="8" fill="rgb(143,51,128)"/>
<rect x="925" y="1009" width="26" height="26" rx="8" fill="rgb(146,51,127)"/>
<rect x="1009" y="1009" width="26" height="26" rx="8" fill="rgb(150,52,126)"/>
<rect x="1065" y="1009" width="26" height="26" rx="8" fill="rgb(153,52,126)"/>
<rect x="1121" y="1009" width="26" height="26" rx="8" fill="rgb(156,52,125)"/>
<rect x="1205" y="1009" width="26" height="26" rx="8" fill="rgb(160,52,124)"/>
<rect x="1233" y="1009" width="26" height="26" rx="8" fill="rgb(162,52,124)"/>
<rect x="1261" y="1009" width="26" height="26" rx="8" fill="rgb(163,52,124)"/>
<rect x="253" y="1037" width="26" height="26" rx="8" fill="rgb(114,49,134)"/>
<rect x="337" y="1037" width="26" height="26" rx="8" fill="rgb(118,50,134)"/>
<rect x="421" y="1037" width="26" height="26" rx="8" fill="rgb(122,50,133)"/>
<rect x="477" y="1037" width="26" height="26" rx="8" fill="rgb(125,50,132)"/>
<rect x="533" y="1037" width="26" height="26" rx="8" fill="rgb(128,50,131)"/>
<rect x="589" y="1037" width="26" height="26" rx="8" fill="rgb(131,50,131)"/>
<rect x="701" y="1037" width="26" height="26" rx="8" fill="rgb(136,51,130)"/>
<rect x="757" y="1037" width="26" height="26" rx="8" fill="rgb(139,51,129)"/>
<rect x="785" y="1037" width="26" height="26" rx="8" fill="rgb(141,51,129)"/>
<rect x="869" y="1037" width="26" height="26" rx="8" fill="rgb(145,51,128)"/>
<rect x="897" y="1037" width="26" height="26" rx="8" fill="rgb(146,51,127)"/>
<rect x="953" y="1037" width="26" height="26" rx="8" fill="rgb(149,51,127)"/>
<rect x="1037" y="1037" width="26" height="26" rx="8" fill="rgb(153,52,126)"/>
<rect x="1065" y="1037" width="26" height="26" rx="8" fill="rgb(155,52,126)"/>
<rect x="1093" y="1037" width="26" height="26" rx="8" fill="rgb(156,52,125)"/>
<rect x="1121" y="1037" width="26" height="26" rx="8" fill="rgb(158,52,125)"/>
<rect x="1149" y="1037" width="26" height="26" rx="8" fill="rgb(159,52,125)"/>
<rect x="1177" y="1037" width="26" height="26" rx="8" fill="rgb(160,52,124)"/>
<rect x="1205" y="1037" width="26" height="26" rx="8" fill="rgb(162,52,124)"/>
<rect x="1261" y="1037" width="26" height="26" rx="8" fill="rgb(165,52,123)"/>
<rect x="477" y="1065" width="26" height="26" rx="8" fill="rgb(126,50,132)"/>
<rect x="589" y="1065" width="26" height="26" rx="8" fill="rgb(132,50,130)"/>
<rect x="673" y="1065" width="26" height="26" rx="8" fill="rgb(136,51,130)"/>
<rect x="701" y="1065" width="26" height="26" rx="8" fill="rgb(138,51,129)"/>
<rect x="757" y="1065" width="26" height="26" rx="8" fill="rgb(141,51,129)"/>
<rect x="841" y="1065" width="26" height="26" rx="8" fill="rgb(145,51,128)"/>
<rect x="869" y="1065" width="26" height="26" rx="8" fill="rgb(146,51,127)"/>
<rect x="1009" y="1065" width="26" height="26" rx="8" fill="rgb(153,52,126)"/>
<rect x="1037" y="1065" width="26" height="26" rx="8" fill="rgb(155,52,126)"/>
<rect x="1149" y="1065" width="26" height="26" rx="8" fill="rgb(160,52,124)"/>
<rect x="1177" y="1065" width="26" height="26" rx="8" fill="rgb(162,52,124)"/>
<rect x="1205" y="1065" width="26" height="26" rx="8" fill="rgb(163,52,124)"/>
<rect x="1233" y="1065" width="26" height="26" rx="8" fill="rgb(165,52,123)"/>
<rect x="477" y="1093" width="26" height="26" rx="8" fill="rgb(128,50,131)"/>
<rect x="561" y="1093" width="26" height="26" rx="8" fill="rgb(132,50,130)"/>
<rect x="617" y="1093" width="26" height="26" rx="8" fill="rgb(135,51,130)"/>
<rect x="645" y="1093" width="26" height="26" rx="8" fill="rgb(136,51,130)"/>
<rect x="841" y="1093" width="26" height="26" rx="8" fill="rgb(146,51,127)"/>
<rect x="869" y="1093" width="26" height="26" rx="8" fill="rgb(148,51,127)"/>
<rect x="897" y="1093" width="26" height="26" rx="8" fill="rgb(149,51,127)"/>
<rect x="925" y="1093" width="26" height="26" rx="8" fill="rgb(150,52,126)"/>
<rect x="1037" y="1093" width="26" height="26" rx="8" fill="rgb(156,52,125)"/>
<rect x="1093" y="1093" width="26" height="26" rx="8" fill="rgb(159,52,125)"/>
<rect x="1149" y="1093" width="26" height="26" rx="8" fill="rgb(162,52,124)"/>
<rect x="1177" y="1093" width="26" height="26" rx="8" fill="rgb(163,52,124)"/>
<rect x="1205" y="1093" width="26" height="26" rx="8" fill="rgb(165,52,123)"/>
<rect x="1261" y="1093" width="26" height="26" rx="8" fill="rgb(168,52,123)"/>
<rect x="561" y="1121" width="26" height="26" rx="8" fill="rgb(134,50,130)"/>
<rect x="589" y="1121" width="26" height="26" rx="8" fill="rgb(135,51,130)"/>
<rect x="645" y="1121" width="26" height="26" rx="8" fill="rgb(138,51,129)"/>
<rect x="673" y="1121" width="26" height="26" rx="8" fill="rgb(139,51,129)"/>
<rect x="701" y="1121" width="26" height="26" rx="8" fill="rgb(141,51,129)"/>
<rect x="757" y="1121" width="26" height="26" rx="8" fill="rgb(143,51,128)"/>
<rect x="785" y="1121" width="26" height="26" rx="8" fill="rgb(145,51,128)"/>
<rect x="813" y="1121" width="26" height="26" rx="8" fill="rgb(146,51,127)"/>
<rect x="869" y="1121" width="26" height="26" rx="8" fill="rgb(149,51,127)"/>
<rect x="897" y="1121" width="26" height="26" rx="8" fill="rgb(150,52,126)"/>
<rect x="953" y="1121" width="26" height="26" rx="8" fill="rgb(153,52,126)"/>
<rect x="981" y="1121" width="26" height="26" rx="8" fill="rgb(155,52,126)"/>
<rect x="1009" y="1121" width="26" height="26" rx="8" fill="rgb(156,52,125)"/>
<rect x="1037" y="1121" width="26" height="26" rx="8" fill="rgb(158,52,125)"/>
<rect x="1149" y="1121" width="26" height="26" rx="8" fill="rgb(163,52,124)"/>
<rect x="1177" y="1121" width="26" height="26" rx="8" fill="rgb(165,52,123)"/>
<rect x="1233" y="1121" width="26" height="26" rx="8" fill="rgb(168,52,123)"/>
<rect x="1261" y="1121" width="26" height="26" rx="8" fill="rgb(169,53,123)"/>
<rect x="477" y="1149" width="26" height="26" rx="8" fill="rgb(131,50,131)"/>
<rect x="505" y="1149" width="26" height="26" rx="8" fill="rgb(132,50,130)"/>
<rect x="589" y="1149" width="26" height="26" rx="8" fill="rgb(136,51,130)"/>
<rect x="617" y="1149" width="26" height="26" rx="8" fill="rgb(138,51,129)"/>
<rect x="645" y="1149" width="26" height="26" rx="8" fill="rgb(139,51,129)"/>
<rect x="673" y="1149" width="26" height="26" rx="8" fill="rgb(141,51,129)"/>
<rect x="785" y="1149" width="26" height="26" rx="8" fill="rgb(146,51,127)"/>
<rect x="841" y="1149" width="26" height="26" rx="8" fill="rgb(149,51,127)"/>
<rect x="897" y="1149" width="26" height="26" rx="8" fill="rgb(152,52,126)"/>
<rect x="925" y="1149" width="26" height="26" rx="8" fill="rgb(153,52,126)"/>
<rect x="981" y="1149" width="26" height="26" rx="8" fill="rgb(156,52,125)"/>
<rect x="1009" y="1149" width="26" height="26" rx="8" fill="rgb(158,52,125)"/>
<rect x="1037" y="1149" width="26" height="26" rx="8" fill="rgb(159,52,125)"/>
<rect x="1065" y="1149" width="26" height="26" rx="8" fill="rgb(160,52,124)"/>
<rect x="1093" y="1149" width="26" height="26" rx="8" fill="rgb(162,52,124)"/>
<rect x="1121" y="1149" width="26" height="26" rx="8" fill="rgb(163,52,124)"/>
<rect x="1149" y="1149" width="26" height="26" rx="8" fill="rgb(165,52,123)"/>
<rect x="1261" y="1149" width="26" height="26" rx="8" fill="rgb(170,53,122)"/>
<rect x="477" y="1177" width="26" height="26" rx="8" fill="rgb(132,50,130)"/>
<rect x="505" y="1177" width="26" height="26" rx="8" fill="rgb(134,50,130)"/>
<rect x="533" y="1177" width="26" height="26" rx="8" fill="rgb(135,51,130)"/>
<rect x="561" y="1177" width="26" height="26" rx="8" fill="rgb(136,51,130)"/>
<rect x="589" y="1177" width="26" height="26" rx="8" fill="rgb(138,51,129)"/>
<rect x="617" y="1177" width="26" height="26" rx="8" fill="rgb(139,51,129)"/>
<rect x="701" y="1177" width="26" height="26" rx="8" fill="rgb(143,51,128)"/>
<rect x="841" y="1177" width="26" height="26" rx="8" fill="rgb(150,52,126)"/>
<rect x="953" y="1177" width="26" height="26" rx="8" fill="rgb(156,52,125)"/>
<rect x="981" y="1177" width="26" height="26" rx="8" fill="rgb(158,52,125)"/>
<rect x="1009" y="1177" width="26" height="26" rx="8" fill="rgb(159,52,125)"/>
<rect x="1037" y="1177" width="26" height="26" rx="8" fill="rgb(160,52,124)"/>
<rect x="1093" y="1177" width="26" height="26" rx="8" fill="rgb(163,52,124)"/>
<rect x="1177" y="1177" width="26" height="26" rx="8" fill="rgb(168,52,123)"/>
<rect x="505" y="1205" width="26" height="26" rx="8" fill="rgb(135,51,130)"/>
<rect x="589" y="1205" width="26" height="26" rx="8" fill="rgb(139,51,129)"/>
<rect x="617" y="1205" width="26" height="26" rx="8" fill="rgb(141,51,129)"/>
<rect x="701" y="1205" width="26" height="26" rx="8" fill="rgb(145,51,128)"/>
<rect x="785" y="1205" width="26" height="26" rx="8" fill="rgb(149,51,127)"/>
<rect x="841" y="1205" width="26" height="26" rx="8" fill="rgb(152,52,126)"/>
<rect x="869" y="1205" width="26" height="26" rx="8" fill="rgb(153,52,126)"/>
<rect x="925" y="1205" width="26" height="26" rx="8" fill="rgb(156,52,125)"/>
<rect x="981" y="1205" width="26" height="26" rx="8" fill="rgb(159,52,125)"/>
<rect x="1009" y="1205" width="26" height="26" rx="8" fill="rgb(160,52,124)"/>
<rect x="1121" y="1205" width="26" height="26" rx="8" fill="rgb(166,52,123)"/>
<rect x="1149" y="1205" width="26" height="26" rx="8" fill="rgb(168,52,123)"/>
<rect x="1233" y="1205" width="26" height="26" rx="8" fill="rgb(172,53,122)"/>
<rect x="1261" y="1205" width="26" height="26" rx="8" fill="rgb(173,53,122)"/>
<rect x="589" y="1233" width="26" height="26" rx="8" fill="rgb(141,51,129)"/>
<rect x="617" y="1233" width="26" height="26" rx="8" fill="rgb(142,51,128)"/>
<rect x="645" y="1233" width="26" height="26" rx="8" fill="rgb(143,51,128)"/>
<rect x="673" y="1233" width="26" height="26" rx="8" fill="rgb(145,51,128)"/>
<rect x="701" y="1233" width="26" height="26" rx="8" fill="rgb(146,51,127)"/>
<rect x="757" y="1233" width="26" height="26" rx="8" fill="rgb(149,51,127)"/>
<rect x="813" y="1233" width="26" height="26" rx="8" fill="rgb(152,52,126)"/>
<rect x="841" y="1233" width="26" height="26" rx="8" fill="rgb(153,52,126)"/>
<rect x="981" y="1233" width="26" height="26" rx="8" fill="rgb(160,52,124)"/>
<rect x="1121" y="1233" width="26" height="26" rx="8" fill="rgb(168,52,123)"/>
<rect x="1177" y="1233" width="26" height="26" rx="8" fill="rgb(170,53,122)"/>
<rect x="1205" y="1233" width="26" height="26" rx="8" fill="rgb(172,53,122)"/>
<rect x="1233" y="1233" width="26" height="26" rx="8" fill="rgb(173,53,122)"/>
<rect x="1261" y="1233" width="26" height="26" rx="8" fill="rgb(175,53,121)"/>
<rect x="505" y="1261" width="26" height="26" rx="8" fill="rgb(138,51,129)"/>
<rect x="533" y="1261" width="26" height="26" rx="8" fill="rgb(139,51,129)"/>
<rect x="589" y="1261" width="26" height="26" rx="8" fill="rgb(142,51,128)"/>
<rect x="673" y="1261" width="26" height="26" rx="8" fill="rgb(146,51,127)"/>
<rect x="729" y="1261" width="26" height="26" rx="8" fill="rgb(149,51,127)"/>
<rect x="785" y="1261" width="26" height="26" rx="8" fill="rgb(152,52,126)"/>
<rect x="813" y="1261" width="26" height="26" rx="8" fill="rgb(153,52,126)"/>
<rect x="925" y="1261" width="26" height="26" rx="8" fill="rgb(159,52,125)"/>
<rect x="1037" y="1261" width="26" height="26" rx="8" fill="rgb(165,52,123)"/>
<rect x="1149" y="1261" width="26" height="26" rx="8" fill="rgb(170,53,122)"/>
<rect x="1261" y="1261" width="26" height="26" rx="8" fill="rgb(176,53,121)"/>
<rect x="253" y="253" width="194" height="194" rx="53" fill="rgb(74,47,143)"/>
<rect x="282" y="282" width="136" height="136" rx="37" fill="rgb(253,248,239)"/>
<rect x="310" y="310" width="80" height="80" rx="24" fill="rgb(74,47,143)"/>
<rect x="1093" y="253" width="194" height="194" rx="53" fill="rgb(116,50,134)"/>
<rect x="1122" y="282" width="136" height="136" rx="37" fill="rgb(253,248,239)"/>
<rect x="1150" y="310" width="80" height="80" rx="24" fill="rgb(116,50,134)"/>
<rect x="253" y="1093" width="194" height="194" rx="53" fill="rgb(116,50,134)"/>
<rect x="282" y="1122" width="136" height="136" rx="37" fill="rgb(253,248,239)"/>
<rect x="310" y="1150" width="80" height="80" rx="24" fill="rgb(116,50,134)"/>
<circle cx="770.0" cy="770.0" r="98.0" fill="#fff" stroke="rgb(201,151,28)" stroke-width="4"/>
<polygon points="770.0,709.2 786.6,753.4 830.8,770.0 786.6,786.6 770.0,830.8 753.4,786.6 709.2,770.0 753.4,753.4" fill="rgb(201,151,28)" opacity="1.0"/>
<circle cx="770.0" cy="770.0" r="714.0" fill="none" stroke="rgb(201,151,28)" stroke-opacity="0.35" stroke-width="3"/>
<circle cx="770.0" cy="770.0" r="735.0" fill="none" stroke="rgb(201,151,28)" stroke-opacity="0.35" stroke-width="2"/>
<polygon points="44.8,18.2 51.5,38.1 71.4,44.8 51.5,51.5 44.8,71.4 38.1,51.5 18.2,44.8 38.1,38.1" fill="rgb(201,151,28)" opacity="1.0"/>
<polygon points="84.0,58.8 87.0,67.0 95.2,70.0 87.0,73.0 84.0,81.2 81.0,73.0 72.8,70.0 81.0,67.0" fill="rgb(208,102,192)" opacity="0.8"/>
<polygon points="44.8,1468.6 51.5,1488.5 71.4,1495.2 51.5,1501.9 44.8,1521.8 38.1,1501.9 18.2,1495.2 38.1,1488.5" fill="rgb(201,151,28)" opacity="1.0"/>
<polygon points="84.0,1458.8 87.0,1467.0 95.2,1470.0 87.0,1473.0 84.0,1481.2 81.0,1473.0 72.8,1470.0 81.0,1467.0" fill="rgb(208,102,192)" opacity="0.8"/>
<polygon points="1495.2,18.2 1501.9,38.1 1521.8,44.8 1501.9,51.5 1495.2,71.4 1488.5,51.5 1468.6,44.8 1488.5,38.1" fill="rgb(201,151,28)" opacity="1.0"/>
<polygon points="1534.4,58.8 1537.4,67.0 1545.6,70.0 1537.4,73.0 1534.4,81.2 1531.4,73.0 1523.2,70.0 1531.4,67.0" fill="rgb(208,102,192)" opacity="0.8"/>
<polygon points="1495.2,1468.6 1501.9,1488.5 1521.8,1495.2 1501.9,1501.9 1495.2,1521.8 1488.5,1501.9 1468.6,1495.2 1488.5,1488.5" fill="rgb(201,151,28)" opacity="1.0"/>
<polygon points="1534.4,1458.8 1537.4,1467.0 1545.6,1470.0 1537.4,1473.0 1534.4,1481.2 1531.4,1473.0 1523.2,1470.0 1531.4,1467.0" fill="rgb(208,102,192)" opacity="0.8"/>
<text x="770.0" y="1584.8" text-anchor="middle" fill="rgb(109,95,138)" font-family="'Segoe UI', 'Noto Sans TC', 'Microsoft JhengHei', sans-serif" font-size="32" letter-spacing="2">魔法少女 TRPG──序章</text>
</svg>